<svg width="32" height="32" viewBox="0 0 32 32" fill="none" xmlns="http://www.w3.org/2000/svg">
<g id="icon">
<path id="Vector" d="M15.6062 8.81245C11.6312 8.81245 8.4249 12.0187 8.4249 15.9937C8.4249 19.9687 11.6312 23.1749 15.6062 23.1749C19.5812 23.1749 22.7874 19.9687 22.7874 15.9937C22.7874 12.0187 19.5812 8.81245 15.6062 8.81245ZM15.6062 20.6625C13.0374 20.6625 10.9374 18.5687 10.9374 15.9937C10.9374 13.4187 13.0312 11.325 15.6062 11.325C18.1812 11.325 20.2749 13.4187 20.2749 15.9937C20.2749 18.5687 18.1749 20.6625 15.6062 20.6625ZM24.7562 8.5187C24.7562 9.44995 24.0062 10.1937 23.0812 10.1937C22.1499 10.1937 21.4062 9.4437 21.4062 8.5187C21.4062 7.5937 22.1562 6.8437 23.0812 6.8437C24.0062 6.8437 24.7562 7.5937 24.7562 8.5187ZM29.5124 10.2187C29.4062 7.97495 28.8937 5.98745 27.2499 4.34995C25.6124 2.71245 23.6249 2.19995 21.3812 2.08745C19.0687 1.9562 12.1374 1.9562 9.8249 2.08745C7.5874 2.1937 5.5999 2.7062 3.95615 4.3437C2.3124 5.9812 1.80615 7.9687 1.69365 10.2125C1.5624 12.525 1.5624 19.4562 1.69365 21.7687C1.7999 24.0124 2.3124 26 3.95615 27.6375C5.5999 29.275 7.58115 29.7875 9.8249 29.9C12.1374 30.0312 19.0687 30.0312 21.3812 29.9C23.6249 29.7937 25.6124 29.2812 27.2499 27.6375C28.8874 26 29.3999 24.0124 29.5124 21.7687C29.6437 19.4562 29.6437 12.5312 29.5124 10.2187ZM26.5249 24.25C26.0374 25.475 25.0937 26.4187 23.8624 26.9125C22.0187 27.6437 17.6437 27.475 15.6062 27.475C13.5687 27.475 9.1874 27.6375 7.3499 26.9125C6.1249 26.425 5.18115 25.4812 4.6874 24.25C3.95615 22.4062 4.1249 18.0312 4.1249 15.9937C4.1249 13.9562 3.9624 9.57495 4.6874 7.73745C5.1749 6.51245 6.11865 5.5687 7.3499 5.07495C9.19365 4.3437 13.5687 4.51245 15.6062 4.51245C17.6437 4.51245 22.0249 4.34995 23.8624 5.07495C25.0874 5.56245 26.0312 6.5062 26.5249 7.73745C27.2562 9.5812 27.0874 13.9562 27.0874 15.9937C27.0874 18.0312 27.2562 22.4125 26.5249 24.25Z" fill="#111111"/>
</g>
</svg>
