<svg width="24" height="24" viewBox="0 0 24 24" fill="none" xmlns="http://www.w3.org/2000/svg">
<path d="M11.7045 6.60928C8.72324 6.60928 6.31855 9.01396 6.31855 11.9952C6.31855 14.9765 8.72324 17.3812 11.7045 17.3812C14.6857 17.3812 17.0904 14.9765 17.0904 11.9952C17.0904 9.01396 14.6857 6.60928 11.7045 6.60928ZM11.7045 15.4968C9.77793 15.4968 8.20293 13.9265 8.20293 11.9952C8.20293 10.064 9.77324 8.49365 11.7045 8.49365C13.6357 8.49365 15.2061 10.064 15.2061 11.9952C15.2061 13.9265 13.6311 15.4968 11.7045 15.4968ZM18.567 6.38896C18.567 7.0874 18.0045 7.64522 17.3107 7.64522C16.6123 7.64522 16.0545 7.08271 16.0545 6.38896C16.0545 5.69521 16.617 5.13271 17.3107 5.13271C18.0045 5.13271 18.567 5.69521 18.567 6.38896ZM22.1342 7.66397C22.0545 5.98115 21.6701 4.49053 20.4373 3.2624C19.2092 2.03428 17.7186 1.6499 16.0357 1.56553C14.3014 1.46709 9.10293 1.46709 7.36856 1.56553C5.69043 1.64521 4.1998 2.02959 2.96699 3.25771C1.73418 4.48584 1.35449 5.97646 1.27012 7.65928C1.17168 9.39365 1.17168 14.5921 1.27012 16.3265C1.3498 18.0093 1.73418 19.4999 2.96699 20.728C4.1998 21.9562 5.68574 22.3405 7.36856 22.4249C9.10293 22.5233 14.3014 22.5233 16.0357 22.4249C17.7186 22.3452 19.2092 21.9608 20.4373 20.728C21.6654 19.4999 22.0498 18.0093 22.1342 16.3265C22.2326 14.5921 22.2326 9.39834 22.1342 7.66397ZM19.8936 18.1874C19.5279 19.1062 18.8201 19.814 17.8967 20.1843C16.5139 20.7327 13.2326 20.6062 11.7045 20.6062C10.1764 20.6062 6.89043 20.728 5.5123 20.1843C4.59355 19.8187 3.88574 19.1108 3.51543 18.1874C2.96699 16.8046 3.09355 13.5233 3.09355 11.9952C3.09355 10.4671 2.97168 7.18115 3.51543 5.80303C3.88105 4.88428 4.58887 4.17646 5.5123 3.80615C6.89512 3.25771 10.1764 3.38428 11.7045 3.38428C13.2326 3.38428 16.5186 3.2624 17.8967 3.80615C18.8154 4.17178 19.5232 4.87959 19.8936 5.80303C20.442 7.18584 20.3154 10.4671 20.3154 11.9952C20.3154 13.5233 20.442 16.8093 19.8936 18.1874Z" fill="black" fill-opacity="0.6"/>
</svg>
